<svg xmlns="http://www.w3.org/2000/svg" xmlns:xlink="http://www.w3.org/1999/xlink" width="0" height="0" style="position:absolute">
	
		<symbol id="icon-arrow-left" viewBox="-3929.1 -1472 8 14">
			<path d="M-3922.1-1458c.3 0 .5-.1.7-.3.4-.4.4-1 0-1.4l-5.3-5.3 5.3-5.3c.4-.4.4-1 0-1.4-.4-.4-1-.4-1.4 0l-6 6c-.4.4-.4 1 0 1.4l6 6c.2.2.4.3.7.3z"></path>
		</symbol>
	
		<symbol id="icon-arrow-left-diz" viewBox="-3929.1 -1446.1 8 14">
			<path d="M-3922.1-1432.1c.3 0 .5-.1.7-.3.4-.4.4-1 0-1.4l-5.3-5.3 5.3-5.3c.4-.4.4-1 0-1.4-.4-.4-1-.4-1.4 0l-6 6c-.4.4-.4 1 0 1.4l6 6c.2.2.4.3.7.3z"></path>
		</symbol>
	
		<symbol id="icon-arrow-right" viewBox="-3904.2 -1472 8 14">
			<path d="M-3903.2-1458c-.3 0-.5-.1-.7-.3-.4-.4-.4-1 0-1.4l5.3-5.3-5.3-5.3c-.4-.4-.4-1 0-1.4.4-.4 1-.4 1.4 0l6 6c.4.4.4 1 0 1.4l-6 6c-.2.2-.4.3-.7.3z"></path>
		</symbol>
	
		<symbol id="icon-arrow-right-diz" viewBox="-3904.2 -1446.1 8 14">
			<path d="M-3903.2-1432.1c-.3 0-.5-.1-.7-.3-.4-.4-.4-1 0-1.4l5.3-5.3-5.3-5.3c-.4-.4-.4-1 0-1.4.4-.4 1-.4 1.4 0l6 6c.4.4.4 1 0 1.4l-6 6c-.2.2-.4.3-.7.3z"></path>
		</symbol>
	
</svg>
